<svg version="1.1" id="Layer_1" xmlns="http://www.w3.org/2000/svg" xmlns:xlink="http://www.w3.org/1999/xlink" x="0px" y="0px"
	 width="100%" viewBox="0 0 1280 731" enable-background="new 0 0 1280 731" xml:space="preserve">
<path fill="#FFFFFF" opacity="1.000000" stroke="none" 
	d="
M830.000000,732.000000 
	C553.367615,732.000000 277.235291,732.000000 1.051457,732.000000 
	C1.051457,488.397919 1.051457,244.795822 1.051457,1.096858 
	C427.549103,1.096858 854.098206,1.096858 1280.823730,1.096858 
	C1280.823730,244.666565 1280.823730,488.333282 1280.823730,732.000000 
	C1130.795776,732.000000 980.647888,732.000000 830.000000,732.000000 
M388.718719,364.329407 
	C388.666168,348.832794 388.526245,333.335571 388.636353,317.840118 
	C388.657806,314.821472 387.865967,313.060455 385.160797,311.514191 
	C356.861359,295.338226 328.611481,279.074615 300.438751,262.679138 
	C297.445892,260.937378 295.355133,260.896423 292.305389,262.673004 
	C264.420563,278.916901 236.451843,295.018402 208.394348,310.962158 
	C205.222748,312.764435 203.994446,314.593750 204.011551,318.269867 
	C204.162003,350.600677 204.153320,382.932739 204.025055,415.263733 
	C204.011414,418.702637 205.081955,420.524200 208.103806,422.252716 
	C236.262848,438.360138 264.345215,454.603027 292.338531,470.996674 
	C295.404938,472.792419 297.555359,472.502319 300.395172,470.855194 
	C313.913483,463.014343 327.536560,455.354034 341.554138,448.157837 
	C355.144897,456.170532 368.697266,464.250397 382.392365,472.080658 
	C383.613953,472.779114 386.057526,472.381592 387.434418,471.606384 
	C401.629181,463.615265 415.767120,455.518921 429.774841,447.205841 
	C431.277496,446.314087 432.706635,443.874756 432.729279,442.134613 
	C432.941376,425.823273 432.927979,409.506561 432.697449,393.195404 
	C432.673126,391.474060 431.252350,389.130493 429.771118,388.183716 
	C423.617889,384.250732 417.238129,380.661926 410.856049,377.099915 
	C403.629822,373.066742 396.312103,369.197510 388.718719,364.329407 
M663.709106,321.677399 
	C659.332031,314.400970 655.005005,307.093445 650.526184,299.880157 
	C649.817749,298.739136 648.471313,297.311371 647.338928,297.236237 
	C642.784241,296.934174 638.197815,297.111237 633.623169,297.111237 
	C633.623169,324.212341 633.623169,350.458496 633.623169,376.694611 
	C639.557922,376.694611 645.135193,376.694611 651.106934,376.694611 
	C651.106934,361.798187 651.106934,347.237396 651.106934,331.176147 
	C652.892639,333.814301 653.919189,335.205170 654.815491,336.675415 
	C660.698853,346.325989 666.519836,356.014771 672.433044,365.646942 
	C675.411560,370.498779 681.721802,370.436127 684.692688,365.507050 
	C690.531555,355.819702 696.258789,346.065186 702.064636,336.357880 
	C702.993530,334.804840 704.090759,333.352570 705.110168,331.853699 
	C705.526550,332.028687 705.942993,332.203705 706.359375,332.378693 
	C706.359375,347.127869 706.359375,361.877045 706.359375,376.608704 
	C712.473694,376.608704 718.014038,376.608704 723.383057,376.608704 
	C723.383057,349.933197 723.383057,323.686737 723.383057,297.120270 
	C719.962708,297.120270 716.942871,297.420441 714.008179,297.048767 
	C709.777283,296.512909 707.440247,298.174133 705.351807,301.843811 
	C698.111816,314.565186 690.510315,327.081055 683.020813,339.659882 
	C681.780884,341.742493 680.412903,343.748871 678.664124,346.476776 
	C673.508911,337.911224 668.807556,330.099701 663.709106,321.677399 
M483.065094,349.649841 
	C483.065094,348.034668 483.065094,346.419525 483.065094,344.559448 
	C495.327454,344.559448 507.047516,344.559448 519.337036,344.559448 
	C519.337036,355.514069 519.337036,366.097168 519.337036,376.689423 
	C525.820679,376.689423 531.726257,376.689423 537.705444,376.689423 
	C537.705444,350.113220 537.705444,323.876617 537.705444,297.425659 
	C531.514526,297.425659 525.628357,297.425659 519.041809,297.425659 
	C519.041809,307.937988 519.041809,318.146667 519.041809,328.369690 
	C506.743622,328.369690 495.150299,328.369690 482.921631,328.369690 
	C482.921631,317.849640 482.921631,307.623627 482.921631,297.407898 
	C476.528809,297.407898 470.778503,297.407898 464.911407,297.407898 
	C464.911407,324.052094 464.911407,350.406219 464.911407,376.755035 
	C471.099243,376.755035 476.863708,376.755035 483.057190,376.755035 
	C483.057190,367.867035 483.057190,359.244934 483.065094,349.649841 
M612.490417,331.994019 
	C612.685669,328.715332 610.298889,329.316650 608.388733,329.312592 
	C598.728516,329.291962 589.065369,329.416748 579.411194,329.175690 
	C578.019165,329.140930 575.591064,327.503723 575.487793,326.430450 
	C575.047485,321.855591 575.300537,317.213959 575.300537,311.970825 
	C589.619629,311.970825 603.329834,311.970825 617.108765,311.970825 
	C617.108765,306.731110 617.108765,302.130524 617.108765,297.481262 
	C596.939453,297.481262 577.059631,297.481262 557.172607,297.481262 
	C557.172607,324.103912 557.172607,350.345093 557.172607,376.717224 
	C577.854187,376.717224 598.235840,376.717224 618.686707,376.717224 
	C618.686707,371.837616 618.686707,367.277771 618.686707,362.057129 
	C604.146851,362.057129 589.927917,362.057129 575.585693,362.057129 
	C575.585693,355.783813 575.585693,350.181061 575.585693,343.927673 
	C587.920776,343.927673 599.975220,343.927673 612.494873,343.927673 
	C612.494873,339.815979 612.494873,336.351593 612.490417,331.994019 
M748.967590,339.406372 
	C743.497192,351.735535 738.026855,364.064697 732.358643,376.839783 
	C734.366028,376.934906 735.356140,377.032104 736.344971,377.020203 
	C741.166870,376.962219 747.056396,378.539825 750.507019,376.325989 
	C753.899109,374.149780 755.149536,368.230011 756.704834,363.733337 
	C757.813904,360.526855 759.598816,359.918518 762.599609,359.967316 
	C771.927307,360.119019 781.261841,360.161194 790.587585,359.961395 
	C794.046265,359.887268 796.058044,360.692535 797.171631,364.307465 
	C798.485168,368.571320 800.586304,372.592529 802.381042,376.801117 
	C808.667236,376.801117 814.928894,376.801117 821.538391,376.801117 
	C820.932007,375.105286 820.525513,373.677948 819.926331,372.336731 
	C810.572388,351.399292 800.551147,330.727936 792.099670,309.433228 
	C788.059509,299.253265 782.657104,295.142029 771.971008,296.942383 
	C768.970459,297.447876 767.282471,298.114868 766.067078,300.905212 
	C760.560425,313.547272 754.880127,326.113708 748.967590,339.406372 
M600.614258,417.840576 
	C601.188843,418.682037 602.234131,419.509003 602.260620,420.367371 
	C602.417542,425.448975 602.337952,430.537872 602.337952,435.546936 
	C605.039124,435.546936 606.915955,435.546936 608.755737,435.546936 
	C608.755737,424.545044 608.755737,413.976776 608.755737,403.413239 
	C599.590515,401.243866 599.917542,410.497131 595.401367,413.740936 
	C590.470886,411.091064 591.253174,400.753845 581.902527,403.554718 
	C581.902527,414.303680 581.902527,424.970337 581.902527,435.697510 
	C584.143066,435.697510 585.915466,435.697510 588.335083,435.697510 
	C588.335083,429.555115 588.335083,423.678467 588.335083,417.801819 
	C590.435608,418.664764 591.419128,419.862030 592.259277,421.152557 
	C594.170166,424.087524 596.154663,423.807251 598.176025,421.344147 
	C598.908142,420.451996 599.479675,419.427979 600.614258,417.840576 
M552.938843,428.416016 
	C552.938843,430.840576 552.938843,433.265137 552.938843,435.998810 
	C555.619690,435.872833 557.522400,435.783417 559.971558,435.668304 
	C559.971558,431.106567 559.971558,427.036743 559.971558,421.141937 
	C562.576233,423.001709 564.326721,423.708466 565.207458,425.005737 
	C566.584656,427.034332 567.631165,429.383087 568.356689,431.738281 
	C569.784546,436.373505 572.812317,436.583405 577.032898,435.424286 
	C574.950989,430.914001 573.021545,426.733917 571.016907,422.391052 
	C571.716370,421.817932 572.325806,421.287109 572.967285,420.798340 
	C576.341187,418.227448 577.706543,414.869476 576.688416,410.730896 
	C575.617126,406.376129 572.596191,403.695892 568.302612,403.300812 
	C563.407227,402.850311 558.438477,403.196594 552.940369,403.196594 
	C552.940369,411.579163 552.940369,419.509094 552.938843,428.416016 
M874.364441,406.169281 
	C870.800964,405.117035 867.279846,403.402283 863.663818,403.170624 
	C858.473083,402.838135 854.587585,406.251221 853.830078,410.547668 
	C853.015198,415.169098 855.191772,418.618896 860.461609,420.903381 
	C862.892944,421.957367 865.515747,422.649048 867.785828,423.963959 
	C869.017395,424.677307 869.690735,426.354340 870.615906,427.596649 
	C869.220337,428.614960 867.766052,430.531647 866.442688,430.445099 
	C864.356323,430.308685 861.226929,429.336060 860.541077,427.814819 
	C858.717834,423.770599 856.140808,424.830139 853.289368,425.374695 
	C853.301392,433.600647 858.703491,437.274780 868.719604,435.973877 
	C873.222290,435.389069 876.559570,433.308075 877.266235,428.365936 
	C877.961426,423.503937 875.705688,420.446167 871.344666,418.675018 
	C868.425659,417.489532 865.430481,416.455536 862.626099,415.042664 
	C861.616089,414.533813 860.630127,413.188812 860.446777,412.089691 
	C860.312378,411.284241 861.599426,409.415039 862.091553,409.469818 
	C864.700134,409.760101 868.726562,409.725433 869.541870,411.254089 
	C871.540039,415.000244 873.927612,414.278046 877.795654,413.705627 
	C876.703003,411.074493 875.798767,408.897156 874.364441,406.169281 
M1043.195801,403.894104 
	C1043.195801,414.447235 1043.195801,425.000397 1043.195801,435.874878 
	C1048.093994,435.874878 1052.570923,436.148468 1057.000854,435.808228 
	C1063.057495,435.343140 1066.512329,431.437714 1066.718994,425.273529 
	C1066.847046,421.455444 1066.776123,417.629150 1066.732056,413.807251 
	C1066.672852,408.682343 1064.186035,404.908417 1059.212524,404.051941 
	C1054.213623,403.191071 1049.015015,403.490417 1043.195801,403.894104 
M509.869568,429.525391 
	C509.869568,431.478455 509.869568,433.431519 509.869568,435.560974 
	C512.259888,435.560974 514.108276,435.560974 516.033203,435.560974 
	C516.033203,424.619415 516.033203,414.064758 516.033203,403.401672 
	C513.896484,403.401672 512.149841,403.401672 509.802338,403.401672 
	C509.802338,407.915131 509.802338,412.148315 509.802338,416.516541 
	C505.972076,416.516541 502.750214,416.516541 498.963837,416.516541 
	C498.963837,411.967896 498.963837,407.731873 498.963837,403.314026 
	C496.626190,403.314026 494.859406,403.314026 492.833862,403.314026 
	C492.833862,414.217712 492.833862,424.897156 492.833862,435.662933 
	C495.004364,435.662933 496.759766,435.662933 499.087219,435.662933 
	C499.087219,431.165619 499.087219,426.926117 499.087219,422.436523 
	C502.878906,422.436523 506.093964,422.436523 509.868347,422.436523 
	C509.868347,424.691895 509.868347,426.641815 509.869568,429.525391 
M701.094299,430.005493 
	C704.229492,436.215881 709.783997,436.730164 715.665588,435.893951 
	C719.797058,435.306580 723.330933,432.703735 723.616089,428.645966 
	C724.204224,420.277374 723.793152,411.838501 723.793152,403.327087 
	C721.679871,403.327087 719.902588,403.327087 717.517456,403.327087 
	C717.517456,410.197113 717.460876,416.830658 717.539429,423.462616 
	C717.584045,427.223846 716.579834,430.466339 712.320984,430.476318 
	C707.871338,430.486755 706.712463,427.313873 706.820862,423.239014 
	C706.996399,416.642151 706.868042,410.037201 706.868042,403.499939 
	C704.171387,403.499939 702.284363,403.499939 700.812683,403.499939 
	C700.812683,412.370087 700.812683,420.810211 701.094299,430.005493 
M819.106750,421.177856 
	C817.950073,417.364716 816.804382,413.548157 815.634521,409.739105 
	C813.327698,402.228333 813.105225,402.104645 805.021118,403.747589 
	C801.697998,414.184021 798.346497,424.709534 794.970886,435.310699 
	C800.341492,436.203247 799.596313,435.049255 803.423096,432.578033 
	C806.298950,430.720917 813.617004,430.725769 815.039368,432.710083 
	C817.750000,436.492004 819.970764,436.097443 823.780151,435.417389 
	C822.235779,430.711456 820.795288,426.322174 819.106750,421.177856 
M529.618164,405.921661 
	C526.462585,415.726593 523.307007,425.531525 520.043518,435.671814 
	C524.038818,435.967987 526.115662,436.029816 528.768250,432.822632 
	C530.472595,430.762024 536.711670,432.452026 540.918091,432.460846 
	C541.843140,437.754333 545.554504,435.664459 549.059631,435.613281 
	C545.765686,425.345154 542.680298,415.410858 539.362244,405.554901 
	C538.187073,402.064209 532.929565,401.957367 529.618164,405.921661 
M633.065063,407.343414 
	C632.275269,405.204346 631.893433,402.515778 628.631165,403.128052 
	C626.694946,403.491425 623.539124,403.776184 623.136963,404.891510 
	C619.509460,414.951019 616.370544,425.186646 613.088257,435.370605 
	C613.458130,435.822418 613.828003,436.274261 614.197876,436.726074 
	C616.420776,435.715607 619.296570,435.252197 620.710815,433.564270 
	C622.743713,431.137909 632.487549,429.347656 633.502502,432.219696 
	C635.209351,437.049377 638.138062,436.240143 641.962524,435.434204 
	C638.979309,426.124359 636.095642,417.125183 633.065063,407.343414 
M693.115784,435.966949 
	C697.623657,435.696808 695.527649,432.781067 695.613220,430.005676 
	C690.379883,430.005676 685.469299,430.005676 680.293762,430.005676 
	C680.293762,427.171143 680.293762,424.930664 680.293762,422.198578 
	C683.826721,422.198578 687.097351,422.198578 690.520386,422.198578 
	C690.520386,420.162048 690.520386,418.627441 690.520386,416.562653 
	C686.912354,416.562653 683.665466,416.562653 680.422363,416.562653 
	C680.422363,413.805725 680.422363,411.604370 680.422363,408.885925 
	C685.758728,408.885925 690.671997,408.885925 695.516968,408.885925 
	C696.043030,403.390076 696.048035,403.199219 692.877014,403.116272 
	C687.219360,402.968262 681.551575,402.979034 675.896667,403.173035 
	C674.958923,403.205170 673.281067,404.490997 673.268433,405.220398 
	C673.093628,415.310211 673.150269,425.404022 673.150269,435.958252 
	C679.931152,435.958252 686.058838,435.958252 693.115784,435.966949 
M790.022217,424.826416 
	C787.708801,424.521484 786.233521,424.850616 785.115295,427.559113 
	C784.493896,429.064209 781.141907,430.681458 779.590393,430.240997 
	C777.760742,429.721619 775.621033,427.200867 775.265503,425.247559 
	C774.592651,421.549927 774.726318,417.583313 775.278564,413.839600 
	C775.531677,412.123779 777.433472,409.535645 778.829834,409.368622 
	C780.861633,409.125580 783.215088,410.524017 785.218201,411.614197 
	C786.000916,412.040192 786.206055,413.527344 786.748047,414.689392 
	C788.740356,414.419891 790.490295,414.183167 792.190552,413.953156 
	C792.134338,407.568756 788.604431,403.638306 782.734253,403.037933 
	C775.103577,402.257538 769.543579,405.437836 768.808411,411.766449 
	C768.218994,416.839996 768.347534,422.057251 768.735779,427.166779 
	C769.110291,432.095306 772.989929,435.440430 777.994263,436.037048 
	C784.702332,436.836792 790.126831,434.519012 791.750488,429.673309 
	C792.198792,428.335449 791.124084,426.487213 790.022217,424.826416 
M471.557465,403.079559 
	C469.420532,403.079559 467.283600,403.079559 464.852814,403.079559 
	C464.852814,414.196777 464.852814,424.886353 464.852814,435.664185 
	C467.010986,435.664185 468.762299,435.664185 471.158569,435.664185 
	C471.158569,431.513153 471.158569,427.626312 471.158569,423.572266 
	C474.265808,423.427063 476.747314,423.409821 479.208221,423.175659 
	C484.433044,422.678497 487.803955,419.558411 488.302765,414.915710 
	C488.928375,409.093353 486.405121,404.955872 480.902344,403.656036 
	C478.205414,403.019012 475.305054,403.243347 471.557465,403.079559 
M915.084534,413.456787 
	C914.385559,407.189117 911.792236,403.831421 906.167542,403.280487 
	C901.285339,402.802307 896.319153,403.181061 891.241699,403.181061 
	C891.241699,414.292236 891.241699,424.853821 891.241699,435.530640 
	C893.565186,435.530640 895.590332,435.530640 898.116089,435.530640 
	C898.116089,431.361084 898.116089,427.603333 898.116089,423.505005 
	C905.596191,423.223053 913.551697,424.277161 915.084534,413.456787 
M656.488281,402.973419 
	C649.088257,403.346497 644.747437,406.833618 644.210205,413.352631 
	C643.870300,417.476746 643.860168,421.676147 644.211365,425.798370 
	C644.822754,432.973846 649.787781,436.527618 657.952209,436.064514 
	C664.582642,435.688416 668.109192,431.955109 668.073303,425.185974 
	C664.952881,424.592438 662.146545,423.867218 660.659912,428.252472 
	C660.250427,429.460449 656.855591,430.579651 655.205688,430.182251 
	C653.577637,429.790039 651.481995,427.558228 651.249512,425.900848 
	C650.678223,421.828857 650.745972,417.586639 651.220398,413.489777 
	C651.400330,411.936188 653.238220,409.617371 654.610291,409.388916 
	C656.551270,409.065796 658.904846,410.083405 660.793945,411.076080 
	C661.710144,411.557465 661.971375,413.285187 662.628662,414.656311 
	C664.637268,414.380493 666.508362,414.123596 668.352600,413.870361 
	C667.521973,406.560028 664.671265,403.867218 656.488281,402.973419 
M933.325317,435.108887 
	C936.635681,424.656372 939.946106,414.203827 943.275024,403.692688 
	C938.209961,402.246002 935.708862,403.115295 934.856323,408.103943 
	C933.957153,413.365479 932.092590,418.462006 930.649780,423.630615 
	C930.224854,423.644531 929.799927,423.658447 929.374939,423.672363 
	C927.920715,418.715698 925.991943,413.838531 925.144104,408.780243 
	C924.275452,403.597595 922.013306,401.956482 916.773132,403.652222 
	C917.064575,404.948120 917.267456,406.213562 917.635803,407.428802 
	C919.942200,415.036621 922.652954,422.546021 924.484985,430.264832 
	C925.667969,435.249420 927.930237,437.020203 933.325317,435.108887 
M961.032104,432.244659 
	C961.032104,424.671265 961.032104,417.097870 961.032104,408.998596 
	C964.503235,408.998596 967.241394,408.998596 969.966309,408.998596 
	C969.966309,406.834229 969.966309,405.221222 969.966309,403.074310 
	C963.280029,403.074310 956.821228,403.306519 950.388367,402.997772 
	C945.602051,402.768005 944.517700,404.588135 945.957092,408.951752 
	C948.686218,409.128296 951.260437,409.294830 954.450439,409.501221 
	C954.450439,418.511261 954.450439,427.072937 954.450439,436.057312 
	C957.291626,435.321167 960.698120,437.999207 961.032104,432.244659 
M752.986206,405.626007 
	C752.355835,404.805389 751.740967,403.285217 751.092773,403.270905 
	C743.528931,403.104156 735.960083,403.164124 728.348877,403.164124 
	C728.348877,405.461395 728.348877,407.048645 728.348877,408.886841 
	C731.322327,409.060333 734.028992,409.218292 737.170349,409.401581 
	C737.170349,418.485687 737.170349,427.049103 737.170349,435.613770 
	C739.546631,435.613770 741.440308,435.613770 743.938660,435.613770 
	C743.938660,426.741669 743.938660,418.208649 743.938660,409.105896 
	C746.489502,409.105896 748.499451,409.393616 750.360046,408.990967 
	C751.370483,408.772278 752.126831,407.379089 752.986206,405.626007 
M1029.428101,432.978851 
	C1029.429932,427.824249 1029.439697,422.669678 1029.432129,417.515076 
	C1029.420410,409.486084 1029.415771,409.490570 1037.452148,408.933258 
	C1037.734985,408.913635 1037.999023,408.621796 1038.659668,408.222382 
	C1038.581909,406.712219 1038.494385,405.014587 1038.409058,403.357300 
	C1030.035278,403.357300 1022.271362,403.357300 1014.246887,403.357300 
	C1014.246887,405.323975 1014.246887,407.021881 1014.246887,408.880157 
	C1017.161072,409.044556 1019.760498,409.191193 1023.034424,409.375885 
	C1023.034424,418.307159 1023.034424,427.005157 1023.034424,437.384064 
	C1025.973145,435.755249 1027.685425,434.806244 1029.428101,432.978851 
M992.951111,416.509430 
	C992.951111,422.921356 992.951111,429.333252 992.951111,435.750885 
	C1000.781433,435.750885 1007.738159,435.750885 1014.951782,435.750885 
	C1014.951782,433.834747 1014.951782,432.109894 1014.951782,429.786438 
	C1009.717285,429.786438 1004.813599,429.786438 999.332825,429.786438 
	C999.332825,420.615112 999.332825,412.036774 999.332825,403.378174 
	C996.965149,403.378174 995.208679,403.378174 992.951050,403.378174 
	C992.951050,407.594147 992.951050,411.554169 992.951111,416.509430 
M827.870911,408.670654 
	C827.870911,417.584412 827.870911,426.498199 827.870911,435.667633 
	C835.546326,435.667633 842.591858,435.667633 849.711548,435.667633 
	C849.711548,433.699127 849.711548,432.019501 849.711548,429.874725 
	C844.522827,429.874725 839.769653,429.874725 834.260864,429.874725 
	C834.260864,420.750000 834.260864,412.076385 834.260864,403.273987 
	C831.871704,403.273987 830.251038,403.273987 828.217468,403.273987 
	C828.095154,404.843964 827.983093,406.282196 827.870911,408.670654 
M756.900574,434.096893 
	C758.687134,434.924011 760.473755,435.751129 763.036865,436.937744 
	C763.036865,424.892456 763.036865,414.226929 763.036865,403.512024 
	C760.890137,403.512024 759.034302,403.512024 756.861084,403.512024 
	C756.861084,413.672333 756.861084,423.423920 756.900574,434.096893 
M977.077576,434.685516 
	C978.333557,432.274445 978.368469,430.003113 975.418518,429.103638 
	C974.242615,428.745117 972.010925,429.219574 971.464966,430.079742 
	C970.754822,431.198608 970.659607,434.005005 971.342163,434.436554 
	C972.699951,435.295105 974.769836,435.027405 977.077576,434.685516 
M1077.158813,429.795746 
	C1074.746948,428.495056 1072.291626,427.876160 1071.166992,431.155792 
	C1070.780396,432.283264 1071.288086,434.344574 1072.154053,435.097168 
	C1073.011963,435.842651 1075.662964,436.059723 1076.071655,435.480804 
	C1077.045898,434.100677 1077.161621,432.114502 1077.158813,429.795746 
z"/>
<path fill="#108BCA" opacity="1.000000" stroke="none" 
	d="
M341.122375,447.629517 
	C327.536560,455.354034 313.913483,463.014343 300.395172,470.855194 
	C297.555359,472.502319 295.404938,472.792419 292.338531,470.996674 
	C264.345215,454.603027 236.262848,438.360138 208.103806,422.252716 
	C205.081955,420.524200 204.011414,418.702637 204.025055,415.263733 
	C204.153320,382.932739 204.162003,350.600677 204.011551,318.269867 
	C203.994446,314.593750 205.222748,312.764435 208.394348,310.962158 
	C236.451843,295.018402 264.420563,278.916901 292.305389,262.673004 
	C295.355133,260.896423 297.445892,260.937378 300.438751,262.679138 
	C328.611481,279.074615 356.861359,295.338226 385.160797,311.514191 
	C387.865967,313.060455 388.657806,314.821472 388.636353,317.840118 
	C388.526245,333.335571 388.666168,348.832794 388.774597,365.197754 
	C388.871460,368.563538 388.912415,371.060944 388.786865,374.039429 
	C388.603882,387.954163 388.494110,401.388824 388.633820,414.820892 
	C388.670471,418.344971 387.696320,420.497620 384.429199,422.330536 
	C372.308960,429.129852 360.397797,436.301849 348.080811,443.425049 
	C345.543121,444.887329 343.332733,446.258392 341.122375,447.629517 
M380.725922,372.706696 
	C380.649384,370.190094 380.572845,367.673462 380.744568,364.230499 
	C380.773285,349.912506 380.885162,335.593567 380.714539,321.277924 
	C380.695435,319.675690 379.483459,317.391693 378.135223,316.604156 
	C352.014771,301.346405 325.775879,286.291473 299.614624,271.103058 
	C297.137665,269.664978 295.191681,269.775452 292.767212,271.185303 
	C267.053070,286.138397 241.302750,301.029572 215.506424,315.840332 
	C213.082886,317.231842 211.963043,318.703003 211.974701,321.654144 
	C212.093521,351.789856 212.007935,381.926453 212.178314,412.061707 
	C212.187988,413.771606 213.493805,416.222717 214.935028,417.064911 
	C241.047104,432.323944 267.257477,447.415344 293.518951,462.416382 
	C294.838959,463.170349 297.219086,463.500671 298.415863,462.818359 
	C311.392914,455.420502 324.231842,447.780304 337.796326,440.064301 
	C340.021545,438.751953 342.246765,437.439606 345.120544,435.974976 
	C355.915527,429.748199 366.751770,423.590668 377.457123,417.213470 
	C378.915741,416.344604 380.662872,414.389526 380.680695,412.918060 
	C380.839691,399.780212 380.640259,386.638000 380.725922,372.706696 
z"/>
<path fill="#0B8DD0" opacity="1.000000" stroke="none" 
	d="
M663.907654,321.982788 
	C668.807556,330.099701 673.508911,337.911224 678.664124,346.476776 
	C680.412903,343.748871 681.780884,341.742493 683.020813,339.659882 
	C690.510315,327.081055 698.111816,314.565186 705.351807,301.843811 
	C707.440247,298.174133 709.777283,296.512909 714.008179,297.048767 
	C716.942871,297.420441 719.962708,297.120270 723.383057,297.120270 
	C723.383057,323.686737 723.383057,349.933197 723.383057,376.608704 
	C718.014038,376.608704 712.473694,376.608704 706.359375,376.608704 
	C706.359375,361.877045 706.359375,347.127869 706.359375,332.378693 
	C705.942993,332.203705 705.526550,332.028687 705.110168,331.853699 
	C704.090759,333.352570 702.993530,334.804840 702.064636,336.357880 
	C696.258789,346.065186 690.531555,355.819702 684.692688,365.507050 
	C681.721802,370.436127 675.411560,370.498779 672.433044,365.646942 
	C666.519836,356.014771 660.698853,346.325989 654.815491,336.675415 
	C653.919189,335.205170 652.892639,333.814301 651.106934,331.176147 
	C651.106934,347.237396 651.106934,361.798187 651.106934,376.694611 
	C645.135193,376.694611 639.557922,376.694611 633.623169,376.694611 
	C633.623169,350.458496 633.623169,324.212341 633.623169,297.111237 
	C638.197815,297.111237 642.784241,296.934174 647.338928,297.236237 
	C648.471313,297.311371 649.817749,298.739136 650.526184,299.880157 
	C655.005005,307.093445 659.332031,314.400970 663.907654,321.982788 
z"/>
<path fill="#078BCF" opacity="1.000000" stroke="none" 
	d="
M483.061157,350.136322 
	C483.057190,359.244934 483.057190,367.867035 483.057190,376.755035 
	C476.863708,376.755035 471.099243,376.755035 464.911407,376.755035 
	C464.911407,350.406219 464.911407,324.052094 464.911407,297.407898 
	C470.778503,297.407898 476.528809,297.407898 482.921631,297.407898 
	C482.921631,307.623627 482.921631,317.849640 482.921631,328.369690 
	C495.150299,328.369690 506.743622,328.369690 519.041809,328.369690 
	C519.041809,318.146667 519.041809,307.937988 519.041809,297.425659 
	C525.628357,297.425659 531.514526,297.425659 537.705444,297.425659 
	C537.705444,323.876617 537.705444,350.113220 537.705444,376.689423 
	C531.726257,376.689423 525.820679,376.689423 519.337036,376.689423 
	C519.337036,366.097168 519.337036,355.514069 519.337036,344.559448 
	C507.047516,344.559448 495.327454,344.559448 483.065094,344.559448 
	C483.065094,346.419525 483.065094,348.034668 483.061157,350.136322 
z"/>
<path fill="#098BCF" opacity="1.000000" stroke="none" 
	d="
M612.492676,332.440613 
	C612.494873,336.351593 612.494873,339.815979 612.494873,343.927673 
	C599.975220,343.927673 587.920776,343.927673 575.585693,343.927673 
	C575.585693,350.181061 575.585693,355.783813 575.585693,362.057129 
	C589.927917,362.057129 604.146851,362.057129 618.686707,362.057129 
	C618.686707,367.277771 618.686707,371.837616 618.686707,376.717224 
	C598.235840,376.717224 577.854187,376.717224 557.172607,376.717224 
	C557.172607,350.345093 557.172607,324.103912 557.172607,297.481262 
	C577.059631,297.481262 596.939453,297.481262 617.108765,297.481262 
	C617.108765,302.130524 617.108765,306.731110 617.108765,311.970825 
	C603.329834,311.970825 589.619629,311.970825 575.300537,311.970825 
	C575.300537,317.213959 575.047485,321.855591 575.487793,326.430450 
	C575.591064,327.503723 578.019165,329.140930 579.411194,329.175690 
	C589.065369,329.416748 598.728516,329.291962 608.388733,329.312592 
	C610.298889,329.316650 612.685669,328.715332 612.492676,332.440613 
z"/>
<path fill="#088BCE" opacity="1.000000" stroke="none" 
	d="
M749.114990,339.056885 
	C754.880127,326.113708 760.560425,313.547272 766.067078,300.905212 
	C767.282471,298.114868 768.970459,297.447876 771.971008,296.942383 
	C782.657104,295.142029 788.059509,299.253265 792.099670,309.433228 
	C800.551147,330.727936 810.572388,351.399292 819.926331,372.336731 
	C820.525513,373.677948 820.932007,375.105286 821.538391,376.801117 
	C814.928894,376.801117 808.667236,376.801117 802.381042,376.801117 
	C800.586304,372.592529 798.485168,368.571320 797.171631,364.307465 
	C796.058044,360.692535 794.046265,359.887268 790.587585,359.961395 
	C781.261841,360.161194 771.927307,360.119019 762.599609,359.967316 
	C759.598816,359.918518 757.813904,360.526855 756.704834,363.733337 
	C755.149536,368.230011 753.899109,374.149780 750.507019,376.325989 
	C747.056396,378.539825 741.166870,376.962219 736.344971,377.020203 
	C735.356140,377.032104 734.366028,376.934906 732.358643,376.839783 
	C738.026855,364.064697 743.497192,351.735535 749.114990,339.056885 
M768.985535,334.493866 
	C767.495544,338.132355 766.005493,341.770874 764.397095,345.698608 
	C772.908875,345.698608 780.797424,345.698608 789.448975,345.698608 
	C785.284790,335.661285 781.324768,326.116089 776.927429,315.516754 
	C773.976562,322.496155 771.594421,328.130402 768.985535,334.493866 
z"/>
<path fill="#F6BC19" opacity="1.000000" stroke="none" 
	d="
M341.338257,447.893677 
	C343.332733,446.258392 345.543121,444.887329 348.420898,443.675964 
	C359.483856,449.755249 369.950134,455.555725 380.231842,461.666718 
	C383.327332,463.506561 385.712402,463.690186 388.870239,461.791595 
	C399.547699,455.371948 410.346436,449.146820 421.227051,443.077240 
	C424.099762,441.474762 425.059387,439.593628 425.011261,436.370819 
	C424.824860,423.899719 424.804901,411.422699 424.989166,398.951843 
	C425.036469,395.750092 424.235596,393.905426 421.297150,392.271698 
	C410.412415,386.220032 399.718781,379.824646 388.953339,373.558380 
	C388.912415,371.060944 388.871460,368.563538 388.932312,365.661560 
	C396.312103,369.197510 403.629822,373.066742 410.856049,377.099915 
	C417.238129,380.661926 423.617889,384.250732 429.771118,388.183716 
	C431.252350,389.130493 432.673126,391.474060 432.697449,393.195404 
	C432.927979,409.506561 432.941376,425.823273 432.729279,442.134613 
	C432.706635,443.874756 431.277496,446.314087 429.774841,447.205841 
	C415.767120,455.518921 401.629181,463.615265 387.434418,471.606384 
	C386.057526,472.381592 383.613953,472.779114 382.392365,472.080658 
	C368.697266,464.250397 355.144897,456.170532 341.338257,447.893677 
z"/>
<path fill="#148DCA" opacity="1.000000" stroke="none" 
	d="
M600.369385,418.152344 
	C599.479675,419.427979 598.908142,420.451996 598.176025,421.344147 
	C596.154663,423.807251 594.170166,424.087524 592.259277,421.152557 
	C591.419128,419.862030 590.435608,418.664764 588.335083,417.801819 
	C588.335083,423.678467 588.335083,429.555115 588.335083,435.697510 
	C585.915466,435.697510 584.143066,435.697510 581.902527,435.697510 
	C581.902527,424.970337 581.902527,414.303680 581.902527,403.554718 
	C591.253174,400.753845 590.470886,411.091064 595.401367,413.740936 
	C599.917542,410.497131 599.590515,401.243866 608.755737,403.413239 
	C608.755737,413.976776 608.755737,424.545044 608.755737,435.546936 
	C606.915955,435.546936 605.039124,435.546936 602.337952,435.546936 
	C602.337952,430.537872 602.417542,425.448975 602.260620,420.367371 
	C602.234131,419.509003 601.188843,418.682037 600.369385,418.152344 
z"/>
<path fill="#148DCA" opacity="1.000000" stroke="none" 
	d="
M552.939575,427.927521 
	C552.940369,419.509094 552.940369,411.579163 552.940369,403.196594 
	C558.438477,403.196594 563.407227,402.850311 568.302612,403.300812 
	C572.596191,403.695892 575.617126,406.376129 576.688416,410.730896 
	C577.706543,414.869476 576.341187,418.227448 572.967285,420.798340 
	C572.325806,421.287109 571.716370,421.817932 571.016907,422.391052 
	C573.021545,426.733917 574.950989,430.914001 577.032898,435.424286 
	C572.812317,436.583405 569.784546,436.373505 568.356689,431.738281 
	C567.631165,429.383087 566.584656,427.034332 565.207458,425.005737 
	C564.326721,423.708466 562.576233,423.001709 559.971558,421.141937 
	C559.971558,427.036743 559.971558,431.106567 559.971558,435.668304 
	C557.522400,435.783417 555.619690,435.872833 552.938843,435.998810 
	C552.938843,433.265137 552.938843,430.840576 552.939575,427.927521 
M559.826904,413.506378 
	C559.380493,418.954803 563.589783,417.202972 565.963562,416.931244 
	C567.453918,416.760620 568.709595,414.539551 570.070557,413.238403 
	C568.568665,411.845917 567.240784,409.628845 565.521667,409.266174 
	C563.289734,408.795410 559.346008,407.522858 559.826904,413.506378 
z"/>
<path fill="#148DCA" opacity="1.000000" stroke="none" 
	d="
M874.629517,406.444519 
	C875.798767,408.897156 876.703003,411.074493 877.795654,413.705627 
	C873.927612,414.278046 871.540039,415.000244 869.541870,411.254089 
	C868.726562,409.725433 864.700134,409.760101 862.091553,409.469818 
	C861.599426,409.415039 860.312378,411.284241 860.446777,412.089691 
	C860.630127,413.188812 861.616089,414.533813 862.626099,415.042664 
	C865.430481,416.455536 868.425659,417.489532 871.344666,418.675018 
	C875.705688,420.446167 877.961426,423.503937 877.266235,428.365936 
	C876.559570,433.308075 873.222290,435.389069 868.719604,435.973877 
	C858.703491,437.274780 853.301392,433.600647 853.289368,425.374695 
	C856.140808,424.830139 858.717834,423.770599 860.541077,427.814819 
	C861.226929,429.336060 864.356323,430.308685 866.442688,430.445099 
	C867.766052,430.531647 869.220337,428.614960 870.615906,427.596649 
	C869.690735,426.354340 869.017395,424.677307 867.785828,423.963959 
	C865.515747,422.649048 862.892944,421.957367 860.461609,420.903381 
	C855.191772,418.618896 853.015198,415.169098 853.830078,410.547668 
	C854.587585,406.251221 858.473083,402.838135 863.663818,403.170624 
	C867.279846,403.402283 870.800964,405.117035 874.629517,406.444519 
z"/>
<path fill="#148DCA" opacity="1.000000" stroke="none" 
	d="
M1043.549805,403.587708 
	C1049.015015,403.490417 1054.213623,403.191071 1059.212524,404.051941 
	C1064.186035,404.908417 1066.672852,408.682343 1066.732056,413.807251 
	C1066.776123,417.629150 1066.847046,421.455444 1066.718994,425.273529 
	C1066.512329,431.437714 1063.057495,435.343140 1057.000854,435.808228 
	C1052.570923,436.148468 1048.093994,435.874878 1043.195801,435.874878 
	C1043.195801,425.000397 1043.195801,414.447235 1043.549805,403.587708 
M1059.986694,414.046661 
	C1058.139648,408.634918 1056.777954,408.072235 1049.507568,409.825562 
	C1049.507568,416.365356 1049.507568,422.943298 1049.507568,429.469025 
	C1058.399780,431.049805 1059.998291,429.785187 1060.004028,421.433807 
	C1060.005493,419.271423 1060.001953,417.109070 1059.986694,414.046661 
z"/>
<path fill="#108BCA" opacity="1.000000" stroke="none" 
	d="
M509.868958,429.058563 
	C509.868347,426.641815 509.868347,424.691895 509.868347,422.436523 
	C506.093964,422.436523 502.878906,422.436523 499.087219,422.436523 
	C499.087219,426.926117 499.087219,431.165619 499.087219,435.662933 
	C496.759766,435.662933 495.004364,435.662933 492.833862,435.662933 
	C492.833862,424.897156 492.833862,414.217712 492.833862,403.314026 
	C494.859406,403.314026 496.626190,403.314026 498.963837,403.314026 
	C498.963837,407.731873 498.963837,411.967896 498.963837,416.516541 
	C502.750214,416.516541 505.972076,416.516541 509.802338,416.516541 
	C509.802338,412.148315 509.802338,407.915131 509.802338,403.401672 
	C512.149841,403.401672 513.896484,403.401672 516.033203,403.401672 
	C516.033203,414.064758 516.033203,424.619415 516.033203,435.560974 
	C514.108276,435.560974 512.259888,435.560974 509.869568,435.560974 
	C509.869568,433.431519 509.869568,431.478455 509.868958,429.058563 
z"/>
<path fill="#1A8ECA" opacity="1.000000" stroke="none" 
	d="
M700.953491,429.627930 
	C700.812683,420.810211 700.812683,412.370087 700.812683,403.499939 
	C702.284363,403.499939 704.171387,403.499939 706.868042,403.499939 
	C706.868042,410.037201 706.996399,416.642151 706.820862,423.239014 
	C706.712463,427.313873 707.871338,430.486755 712.320984,430.476318 
	C716.579834,430.466339 717.584045,427.223846 717.539429,423.462616 
	C717.460876,416.830658 717.517456,410.197113 717.517456,403.327087 
	C719.902588,403.327087 721.679871,403.327087 723.793152,403.327087 
	C723.793152,411.838501 724.204224,420.277374 723.616089,428.645966 
	C723.330933,432.703735 719.797058,435.306580 715.665588,435.893951 
	C709.783997,436.730164 704.229492,436.215881 700.953491,429.627930 
z"/>
<path fill="#148DCA" opacity="1.000000" stroke="none" 
	d="
M819.230774,421.555359 
	C820.795288,426.322174 822.235779,430.711456 823.780151,435.417389 
	C819.970764,436.097443 817.750000,436.492004 815.039368,432.710083 
	C813.617004,430.725769 806.298950,430.720917 803.423096,432.578033 
	C799.596313,435.049255 800.341492,436.203247 794.970886,435.310699 
	C798.346497,424.709534 801.697998,414.184021 805.021118,403.747589 
	C813.105225,402.104645 813.327698,402.228333 815.634521,409.739105 
	C816.804382,413.548157 817.950073,417.364716 819.230774,421.555359 
M805.486572,423.870270 
	C807.882751,424.761475 810.278931,425.652679 812.675171,426.543884 
	C812.950134,426.081116 813.225098,425.618378 813.500061,425.155640 
	C812.255676,421.020447 811.011292,416.885254 809.766907,412.750092 
	C809.436646,412.748505 809.106384,412.746948 808.776123,412.745392 
	C807.778748,416.207214 806.781372,419.669037 805.486572,423.870270 
z"/>
<path fill="#148DCA" opacity="1.000000" stroke="none" 
	d="
M529.758850,405.545349 
	C532.929565,401.957367 538.187073,402.064209 539.362244,405.554901 
	C542.680298,415.410858 545.765686,425.345154 549.059631,435.613281 
	C545.554504,435.664459 541.843140,437.754333 540.918091,432.460846 
	C536.711670,432.452026 530.472595,430.762024 528.768250,432.822632 
	C526.115662,436.029816 524.038818,435.967987 520.043518,435.671814 
	C523.307007,425.531525 526.462585,415.726593 529.758850,405.545349 
M530.755859,425.315918 
	C533.262878,425.507019 535.769958,425.698120 538.968750,425.941925 
	C537.417053,420.842834 536.134949,416.629608 534.466248,411.146088 
	C532.907043,416.464874 531.713989,420.534790 530.755859,425.315918 
z"/>
<path fill="#148DCA" opacity="1.000000" stroke="none" 
	d="
M633.138550,407.734711 
	C636.095642,417.125183 638.979309,426.124359 641.962524,435.434204 
	C638.138062,436.240143 635.209351,437.049377 633.502502,432.219696 
	C632.487549,429.347656 622.743713,431.137909 620.710815,433.564270 
	C619.296570,435.252197 616.420776,435.715607 614.197876,436.726074 
	C613.828003,436.274261 613.458130,435.822418 613.088257,435.370605 
	C616.370544,425.186646 619.509460,414.951019 623.136963,404.891510 
	C623.539124,403.776184 626.694946,403.491425 628.631165,403.128052 
	C631.893433,402.515778 632.275269,405.204346 633.138550,407.734711 
M626.807007,413.741913 
	C625.624939,417.589844 624.442932,421.437775 623.229675,425.387390 
	C626.443665,425.387390 628.927612,425.387390 632.385925,425.387390 
	C630.393799,420.796539 628.720520,416.940613 626.807007,413.741913 
z"/>
<path fill="#1A8ECA" opacity="1.000000" stroke="none" 
	d="
M692.651123,435.962585 
	C686.058838,435.958252 679.931152,435.958252 673.150269,435.958252 
	C673.150269,425.404022 673.093628,415.310211 673.268433,405.220398 
	C673.281067,404.490997 674.958923,403.205170 675.896667,403.173035 
	C681.551575,402.979034 687.219360,402.968262 692.877014,403.116272 
	C696.048035,403.199219 696.043030,403.390076 695.516968,408.885925 
	C690.671997,408.885925 685.758728,408.885925 680.422363,408.885925 
	C680.422363,411.604370 680.422363,413.805725 680.422363,416.562653 
	C683.665466,416.562653 686.912354,416.562653 690.520386,416.562653 
	C690.520386,418.627441 690.520386,420.162048 690.520386,422.198578 
	C687.097351,422.198578 683.826721,422.198578 680.293762,422.198578 
	C680.293762,424.930664 680.293762,427.171143 680.293762,430.005676 
	C685.469299,430.005676 690.379883,430.005676 695.613220,430.005676 
	C695.527649,432.781067 697.623657,435.696808 692.651123,435.962585 
z"/>
<path fill="#148DCA" opacity="1.000000" stroke="none" 
	d="
M790.385193,424.849792 
	C791.124084,426.487213 792.198792,428.335449 791.750488,429.673309 
	C790.126831,434.519012 784.702332,436.836792 777.994263,436.037048 
	C772.989929,435.440430 769.110291,432.095306 768.735779,427.166779 
	C768.347534,422.057251 768.218994,416.839996 768.808411,411.766449 
	C769.543579,405.437836 775.103577,402.257538 782.734253,403.037933 
	C788.604431,403.638306 792.134338,407.568756 792.190552,413.953156 
	C790.490295,414.183167 788.740356,414.419891 786.748047,414.689392 
	C786.206055,413.527344 786.000916,412.040192 785.218201,411.614197 
	C783.215088,410.524017 780.861633,409.125580 778.829834,409.368622 
	C777.433472,409.535645 775.531677,412.123779 775.278564,413.839600 
	C774.726318,417.583313 774.592651,421.549927 775.265503,425.247559 
	C775.621033,427.200867 777.760742,429.721619 779.590393,430.240997 
	C781.141907,430.681458 784.493896,429.064209 785.115295,427.559113 
	C786.233521,424.850616 787.708801,424.521484 790.385193,424.849792 
z"/>
<path fill="#108BCA" opacity="1.000000" stroke="none" 
	d="
M472.027100,403.078674 
	C475.305054,403.243347 478.205414,403.019012 480.902344,403.656036 
	C486.405121,404.955872 488.928375,409.093353 488.302765,414.915710 
	C487.803955,419.558411 484.433044,422.678497 479.208221,423.175659 
	C476.747314,423.409821 474.265808,423.427063 471.158569,423.572266 
	C471.158569,427.626312 471.158569,431.513153 471.158569,435.664185 
	C468.762299,435.664185 467.010986,435.664185 464.852814,435.664185 
	C464.852814,424.886353 464.852814,414.196777 464.852814,403.079559 
	C467.283600,403.079559 469.420532,403.079559 472.027100,403.078674 
M480.222168,417.000641 
	C480.491730,414.952972 481.490417,411.395294 480.907288,411.113708 
	C478.074738,409.746063 474.818329,409.256226 471.382690,408.370605 
	C471.382690,412.349579 471.382690,415.026428 471.382690,418.193665 
	C474.369171,417.910797 476.940796,417.667236 480.222168,417.000641 
z"/>
<path fill="#108BCA" opacity="1.000000" stroke="none" 
	d="
M915.080688,413.868958 
	C913.551697,424.277161 905.596191,423.223053 898.116089,423.505005 
	C898.116089,427.603333 898.116089,431.361084 898.116089,435.530640 
	C895.590332,435.530640 893.565186,435.530640 891.241699,435.530640 
	C891.241699,424.853821 891.241699,414.292236 891.241699,403.181061 
	C896.319153,403.181061 901.285339,402.802307 906.167542,403.280487 
	C911.792236,403.831421 914.385559,407.189117 915.080688,413.868958 
M906.289429,409.661865 
	C903.616394,409.450562 900.943359,409.239258 898.273804,409.028229 
	C898.273804,412.410706 898.273804,414.984406 898.273804,418.860535 
	C901.824768,417.766632 904.942200,417.190216 907.559998,415.722748 
	C908.193787,415.367493 907.179016,412.071228 906.289429,409.661865 
z"/>
<path fill="#148DCA" opacity="1.000000" stroke="none" 
	d="
M656.915344,402.979187 
	C664.671265,403.867218 667.521973,406.560028 668.352600,413.870361 
	C666.508362,414.123596 664.637268,414.380493 662.628662,414.656311 
	C661.971375,413.285187 661.710144,411.557465 660.793945,411.076080 
	C658.904846,410.083405 656.551270,409.065796 654.610291,409.388916 
	C653.238220,409.617371 651.400330,411.936188 651.220398,413.489777 
	C650.745972,417.586639 650.678223,421.828857 651.249512,425.900848 
	C651.481995,427.558228 653.577637,429.790039 655.205688,430.182251 
	C656.855591,430.579651 660.250427,429.460449 660.659912,428.252472 
	C662.146545,423.867218 664.952881,424.592438 668.073303,425.185974 
	C668.109192,431.955109 664.582642,435.688416 657.952209,436.064514 
	C649.787781,436.527618 644.822754,432.973846 644.211365,425.798370 
	C643.860168,421.676147 643.870300,417.476746 644.210205,413.352631 
	C644.747437,406.833618 649.088257,403.346497 656.915344,402.979187 
z"/>
<path fill="#148DCA" opacity="1.000000" stroke="none" 
	d="
M933.040344,435.390564 
	C927.930237,437.020203 925.667969,435.249420 924.484985,430.264832 
	C922.652954,422.546021 919.942200,415.036621 917.635803,407.428802 
	C917.267456,406.213562 917.064575,404.948120 916.773132,403.652222 
	C922.013306,401.956482 924.275452,403.597595 925.144104,408.780243 
	C925.991943,413.838531 927.920715,418.715698 929.374939,423.672363 
	C929.799927,423.658447 930.224854,423.644531 930.649780,423.630615 
	C932.092590,418.462006 933.957153,413.365479 934.856323,408.103943 
	C935.708862,403.115295 938.209961,402.246002 943.275024,403.692688 
	C939.946106,414.203827 936.635681,424.656372 933.040344,435.390564 
z"/>
<path fill="#1A8ECA" opacity="1.000000" stroke="none" 
	d="
M961.026062,432.711914 
	C960.698120,437.999207 957.291626,435.321167 954.450439,436.057312 
	C954.450439,427.072937 954.450439,418.511261 954.450439,409.501221 
	C951.260437,409.294830 948.686218,409.128296 945.957092,408.951752 
	C944.517700,404.588135 945.602051,402.768005 950.388367,402.997772 
	C956.821228,403.306519 963.280029,403.074310 969.966309,403.074310 
	C969.966309,405.221222 969.966309,406.834229 969.966309,408.998596 
	C967.241394,408.998596 964.503235,408.998596 961.032104,408.998596 
	C961.032104,417.097870 961.032104,424.671265 961.026062,432.711914 
z"/>
<path fill="#148DCA" opacity="1.000000" stroke="none" 
	d="
M752.992004,406.070831 
	C752.126831,407.379089 751.370483,408.772278 750.360046,408.990967 
	C748.499451,409.393616 746.489502,409.105896 743.938660,409.105896 
	C743.938660,418.208649 743.938660,426.741669 743.938660,435.613770 
	C741.440308,435.613770 739.546631,435.613770 737.170349,435.613770 
	C737.170349,427.049103 737.170349,418.485687 737.170349,409.401581 
	C734.028992,409.218292 731.322327,409.060333 728.348877,408.886841 
	C728.348877,407.048645 728.348877,405.461395 728.348877,403.164124 
	C735.960083,403.164124 743.528931,403.104156 751.092773,403.270905 
	C751.740967,403.285217 752.355835,404.805389 752.992004,406.070831 
z"/>
<path fill="#108BCA" opacity="1.000000" stroke="none" 
	d="
M1029.412842,433.418030 
	C1027.685425,434.806244 1025.973145,435.755249 1023.034424,437.384064 
	C1023.034424,427.005157 1023.034424,418.307159 1023.034424,409.375885 
	C1019.760498,409.191193 1017.161072,409.044556 1014.246887,408.880157 
	C1014.246887,407.021881 1014.246887,405.323975 1014.246887,403.357300 
	C1022.271362,403.357300 1030.035278,403.357300 1038.409058,403.357300 
	C1038.494385,405.014587 1038.581909,406.712219 1038.659668,408.222382 
	C1037.999023,408.621796 1037.734985,408.913635 1037.452148,408.933258 
	C1029.415771,409.490570 1029.420410,409.486084 1029.432129,417.515076 
	C1029.439697,422.669678 1029.429932,427.824249 1029.412842,433.418030 
z"/>
<path fill="#108BCA" opacity="1.000000" stroke="none" 
	d="
M992.951050,416.011810 
	C992.951050,411.554169 992.951050,407.594147 992.951050,403.378174 
	C995.208679,403.378174 996.965149,403.378174 999.332825,403.378174 
	C999.332825,412.036774 999.332825,420.615112 999.332825,429.786438 
	C1004.813599,429.786438 1009.717285,429.786438 1014.951782,429.786438 
	C1014.951782,432.109894 1014.951782,433.834747 1014.951782,435.750885 
	C1007.738159,435.750885 1000.781433,435.750885 992.951111,435.750885 
	C992.951111,429.333252 992.951111,422.921356 992.951050,416.011810 
z"/>
<path fill="#148DCA" opacity="1.000000" stroke="none" 
	d="
M827.870972,408.195526 
	C827.983093,406.282196 828.095154,404.843964 828.217468,403.273987 
	C830.251038,403.273987 831.871704,403.273987 834.260864,403.273987 
	C834.260864,412.076385 834.260864,420.750000 834.260864,429.874725 
	C839.769653,429.874725 844.522827,429.874725 849.711548,429.874725 
	C849.711548,432.019501 849.711548,433.699127 849.711548,435.667633 
	C842.591858,435.667633 835.546326,435.667633 827.870911,435.667633 
	C827.870911,426.498199 827.870911,417.584412 827.870972,408.195526 
z"/>
<path fill="#108BCA" opacity="1.000000" stroke="none" 
	d="
M756.880859,433.636230 
	C756.861084,423.423920 756.861084,413.672333 756.861084,403.512024 
	C759.034302,403.512024 760.890137,403.512024 763.036865,403.512024 
	C763.036865,414.226929 763.036865,424.892456 763.036865,436.937744 
	C760.473755,435.751129 758.687134,434.924011 756.880859,433.636230 
z"/>
<path fill="#1A8ECA" opacity="1.000000" stroke="none" 
	d="
M976.811523,434.955261 
	C974.769836,435.027405 972.699951,435.295105 971.342163,434.436554 
	C970.659607,434.005005 970.754822,431.198608 971.464966,430.079742 
	C972.010925,429.219574 974.242615,428.745117 975.418518,429.103638 
	C978.368469,430.003113 978.333557,432.274445 976.811523,434.955261 
z"/>
<path fill="#1A8ECA" opacity="1.000000" stroke="none" 
	d="
M1077.391479,430.084412 
	C1077.161621,432.114502 1077.045898,434.100677 1076.071655,435.480804 
	C1075.662964,436.059723 1073.011963,435.842651 1072.154053,435.097168 
	C1071.288086,434.344574 1070.780396,432.283264 1071.166992,431.155792 
	C1072.291626,427.876160 1074.746948,428.495056 1077.391479,430.084412 
z"/>
<path fill="#FBFEFD" opacity="1.000000" stroke="none" 
	d="
M337.108459,440.206238 
	C324.231842,447.780304 311.392914,455.420502 298.415863,462.818359 
	C297.219086,463.500671 294.838959,463.170349 293.518951,462.416382 
	C267.257477,447.415344 241.047104,432.323944 214.935028,417.064911 
	C213.493805,416.222717 212.187988,413.771606 212.178314,412.061707 
	C212.007935,381.926453 212.093521,351.789856 211.974701,321.654144 
	C211.963043,318.703003 213.082886,317.231842 215.506424,315.840332 
	C241.302750,301.029572 267.053070,286.138397 292.767212,271.185303 
	C295.191681,269.775452 297.137665,269.664978 299.614624,271.103058 
	C325.775879,286.291473 352.014771,301.346405 378.135223,316.604156 
	C379.483459,317.391693 380.695435,319.675690 380.714539,321.277924 
	C380.885162,335.593567 380.773285,349.912506 380.301666,364.752838 
	C366.305756,372.995453 352.725220,380.668488 339.248596,388.519867 
	C338.089081,389.195374 336.936768,391.050262 336.931335,392.362122 
	C336.865143,408.309631 337.014832,424.258026 337.108459,440.206238 
M330.727661,319.508514 
	C324.380188,319.508514 318.032684,319.508514 312.867371,319.508514 
	C313.894562,326.375977 314.900482,333.101440 315.990967,340.392059 
	C319.131653,340.392059 322.608673,340.196655 326.055237,340.437164 
	C331.427155,340.812073 334.603241,343.911011 334.574829,348.343567 
	C334.544861,353.020996 331.121613,356.021271 325.488068,356.170502 
	C322.090179,356.260529 318.687958,356.187103 315.403778,356.187103 
	C315.403778,363.660400 315.403778,370.238434 315.403778,377.540558 
	C322.074036,377.081543 328.549316,377.510803 334.561462,376.042908 
	C347.699890,372.835114 356.333618,360.378845 355.756531,346.992462 
	C355.172638,333.448914 345.550262,322.617371 330.727661,319.508514 
M289.874725,352.485657 
	C289.874725,356.403931 289.874725,360.322174 289.874725,364.759552 
	C296.103790,364.759552 301.559296,364.620575 307.003082,364.812805 
	C310.158325,364.924225 310.967377,363.594849 310.934723,360.683167 
	C310.821045,350.541748 310.991669,340.397003 310.869110,330.255798 
	C310.793243,323.978699 306.166077,319.233307 300.401520,319.118958 
	C294.569946,319.003296 290.065887,323.581787 289.943115,330.040253 
	C289.807281,337.187805 289.890625,344.339539 289.874725,352.485657 
M236.998932,343.501831 
	C236.998932,350.415924 236.998932,357.330017 236.998932,364.752808 
	C243.528763,364.752808 249.319016,364.925629 255.080185,364.593903 
	C256.120178,364.534027 257.865143,362.416016 257.887543,361.222015 
	C258.087219,350.587769 258.144318,339.943420 257.884064,329.310883 
	C257.737549,323.325653 252.705765,318.872406 247.134644,319.102539 
	C241.654877,319.328857 237.128799,324.184540 237.033554,330.035889 
	C236.965942,334.190765 237.006592,338.347443 236.998932,343.501831 
M310.870636,390.494751 
	C310.870636,383.395325 310.870636,376.295868 310.870636,369.186707 
	C303.543610,369.186707 296.954498,369.186707 289.917419,369.186707 
	C289.917419,380.777588 289.852997,392.070892 289.942322,403.363007 
	C289.993256,409.805603 293.999329,413.953033 299.954498,414.058105 
	C306.073486,414.166046 310.557861,409.900757 310.824554,403.489288 
	C310.990631,399.496307 310.865173,395.491241 310.870636,390.494751 
M236.996231,377.548523 
	C236.998962,386.354950 236.897400,395.163086 237.042938,403.967163 
	C237.132431,409.380463 241.086761,413.496643 246.230667,414.009033 
	C251.776794,414.561432 257.390045,411.245972 257.607910,405.979401 
	C258.112732,393.774109 257.768463,381.533661 257.768463,369.268433 
	C250.672272,369.268433 243.978226,369.268433 236.996567,369.268433 
	C236.996567,371.954376 236.996567,374.260773 236.996231,377.548523 
M263.183136,359.900238 
	C260.041351,366.958527 261.074310,372.780853 266.176697,376.774048 
	C270.501953,380.159058 277.096741,380.211365 281.446777,376.895142 
	C287.309662,372.425507 288.265167,363.914185 283.524658,358.385773 
	C278.246582,352.230469 269.918030,352.600586 263.183136,359.900238 
z"/>
<path fill="#FCFDFA" opacity="1.000000" stroke="none" 
	d="
M388.786865,374.039429 
	C399.718781,379.824646 410.412415,386.220032 421.297150,392.271698 
	C424.235596,393.905426 425.036469,395.750092 424.989166,398.951843 
	C424.804901,411.422699 424.824860,423.899719 425.011261,436.370819 
	C425.059387,439.593628 424.099762,441.474762 421.227051,443.077240 
	C410.346436,449.146820 399.547699,455.371948 388.870239,461.791595 
	C385.712402,463.690186 383.327332,463.506561 380.231842,461.666718 
	C369.950134,455.555725 359.483856,449.755249 348.748199,443.584778 
	C360.397797,436.301849 372.308960,429.129852 384.429199,422.330536 
	C387.696320,420.497620 388.670471,418.344971 388.633820,414.820892 
	C388.494110,401.388824 388.603882,387.954163 388.786865,374.039429 
z"/>
<path fill="#FAFDF8" opacity="1.000000" stroke="none" 
	d="
M380.546356,373.497070 
	C380.640259,386.638000 380.839691,399.780212 380.680695,412.918060 
	C380.662872,414.389526 378.915741,416.344604 377.457123,417.213470 
	C366.751770,423.590668 355.915527,429.748199 344.683044,435.585327 
	C344.253418,423.233826 344.365601,411.270538 344.202698,399.311066 
	C344.156677,395.931549 345.131592,393.830292 348.188751,392.125000 
	C359.056641,386.062744 369.772766,379.728394 380.546356,373.497070 
z"/>
<path fill="#F6BC19" opacity="1.000000" stroke="none" 
	d="
M380.636139,373.101868 
	C369.772766,379.728394 359.056641,386.062744 348.188751,392.125000 
	C345.131592,393.830292 344.156677,395.931549 344.202698,399.311066 
	C344.365601,411.270538 344.253418,423.233826 344.358765,435.661469 
	C342.246765,437.439606 340.021545,438.751953 337.452393,440.135254 
	C337.014832,424.258026 336.865143,408.309631 336.931335,392.362122 
	C336.936768,391.050262 338.089081,389.195374 339.248596,388.519867 
	C352.725220,380.668488 366.305756,372.995453 380.177521,365.216003 
	C380.572845,367.673462 380.649384,370.190094 380.636139,373.101868 
z"/>
<path fill="#F0FDFE" opacity="1.000000" stroke="none" 
	d="
M769.098877,334.129272 
	C771.594421,328.130402 773.976562,322.496155 776.927429,315.516754 
	C781.324768,326.116089 785.284790,335.661285 789.448975,345.698608 
	C780.797424,345.698608 772.908875,345.698608 764.397095,345.698608 
	C766.005493,341.770874 767.495544,338.132355 769.098877,334.129272 
z"/>
<path fill="#E9FAFD" opacity="1.000000" stroke="none" 
	d="
M559.826416,413.048340 
	C559.346008,407.522858 563.289734,408.795410 565.521667,409.266174 
	C567.240784,409.628845 568.568665,411.845917 570.070557,413.238403 
	C568.709595,414.539551 567.453918,416.760620 565.963562,416.931244 
	C563.589783,417.202972 559.380493,418.954803 559.826416,413.048340 
z"/>
<path fill="#E9FAFD" opacity="1.000000" stroke="none" 
	d="
M1059.993652,414.496674 
	C1060.001953,417.109070 1060.005493,419.271423 1060.004028,421.433807 
	C1059.998291,429.785187 1058.399780,431.049805 1049.507568,429.469025 
	C1049.507568,422.943298 1049.507568,416.365356 1049.507568,409.825562 
	C1056.777954,408.072235 1058.139648,408.634918 1059.993652,414.496674 
z"/>
<path fill="#D5F5FD" opacity="1.000000" stroke="none" 
	d="
M805.635254,423.500549 
	C806.781372,419.669037 807.778748,416.207214 808.776123,412.745392 
	C809.106384,412.746948 809.436646,412.748505 809.766907,412.750092 
	C811.011292,416.885254 812.255676,421.020447 813.500061,425.155640 
	C813.225098,425.618378 812.950134,426.081116 812.675171,426.543884 
	C810.278931,425.652679 807.882751,424.761475 805.635254,423.500549 
z"/>
<path fill="#D5F5FD" opacity="1.000000" stroke="none" 
	d="
M530.638367,424.960327 
	C531.713989,420.534790 532.907043,416.464874 534.466248,411.146088 
	C536.134949,416.629608 537.417053,420.842834 538.968750,425.941925 
	C535.769958,425.698120 533.262878,425.507019 530.638367,424.960327 
z"/>
<path fill="#D5F5FD" opacity="1.000000" stroke="none" 
	d="
M626.927124,413.413300 
	C628.720520,416.940613 630.393799,420.796539 632.385925,425.387390 
	C628.927612,425.387390 626.443665,425.387390 623.229675,425.387390 
	C624.442932,421.437775 625.624939,417.589844 626.927124,413.413300 
z"/>
<path fill="#E9FAFD" opacity="1.000000" stroke="none" 
	d="
M479.867310,417.212158 
	C476.940796,417.667236 474.369171,417.910797 471.382690,418.193665 
	C471.382690,415.026428 471.382690,412.349579 471.382690,408.370605 
	C474.818329,409.256226 478.074738,409.746063 480.907288,411.113708 
	C481.490417,411.395294 480.491730,414.952972 479.867310,417.212158 
z"/>
<path fill="#E9FAFD" opacity="1.000000" stroke="none" 
	d="
M906.605835,409.894592 
	C907.179016,412.071228 908.193787,415.367493 907.559998,415.722748 
	C904.942200,417.190216 901.824768,417.766632 898.273804,418.860535 
	C898.273804,414.984406 898.273804,412.410706 898.273804,409.028229 
	C900.943359,409.239258 903.616394,409.450562 906.605835,409.894592 
z"/>
<path fill="#098BCF" opacity="1.000000" stroke="none" 
	d="
M331.141907,319.629761 
	C345.550262,322.617371 355.172638,333.448914 355.756531,346.992462 
	C356.333618,360.378845 347.699890,372.835114 334.561462,376.042908 
	C328.549316,377.510803 322.074036,377.081543 315.403778,377.540558 
	C315.403778,370.238434 315.403778,363.660400 315.403778,356.187103 
	C318.687958,356.187103 322.090179,356.260529 325.488068,356.170502 
	C331.121613,356.021271 334.544861,353.020996 334.574829,348.343567 
	C334.603241,343.911011 331.427155,340.812073 326.055237,340.437164 
	C322.608673,340.196655 319.131653,340.392059 315.990967,340.392059 
	C314.900482,333.101440 313.894562,326.375977 312.867371,319.508514 
	C318.032684,319.508514 324.380188,319.508514 331.141907,319.629761 
z"/>
<path fill="#F8BB0D" opacity="1.000000" stroke="none" 
	d="
M289.876617,351.987549 
	C289.890625,344.339539 289.807281,337.187805 289.943115,330.040253 
	C290.065887,323.581787 294.569946,319.003296 300.401520,319.118958 
	C306.166077,319.233307 310.793243,323.978699 310.869110,330.255798 
	C310.991669,340.397003 310.821045,350.541748 310.934723,360.683167 
	C310.967377,363.594849 310.158325,364.924225 307.003082,364.812805 
	C301.559296,364.620575 296.103790,364.759552 289.874725,364.759552 
	C289.874725,360.322174 289.874725,356.403931 289.876617,351.987549 
z"/>
<path fill="#F8BB0D" opacity="1.000000" stroke="none" 
	d="
M236.998932,343.002563 
	C237.006592,338.347443 236.965942,334.190765 237.033554,330.035889 
	C237.128799,324.184540 241.654877,319.328857 247.134644,319.102539 
	C252.705765,318.872406 257.737549,323.325653 257.884064,329.310883 
	C258.144318,339.943420 258.087219,350.587769 257.887543,361.222015 
	C257.865143,362.416016 256.120178,364.534027 255.080185,364.593903 
	C249.319016,364.925629 243.528763,364.752808 236.998932,364.752808 
	C236.998932,357.330017 236.998932,350.415924 236.998932,343.002563 
z"/>
<path fill="#088BCE" opacity="1.000000" stroke="none" 
	d="
M310.870605,390.993164 
	C310.865173,395.491241 310.990631,399.496307 310.824554,403.489288 
	C310.557861,409.900757 306.073486,414.166046 299.954498,414.058105 
	C293.999329,413.953033 289.993256,409.805603 289.942322,403.363007 
	C289.852997,392.070892 289.917419,380.777588 289.917419,369.186707 
	C296.954498,369.186707 303.543610,369.186707 310.870636,369.186707 
	C310.870636,376.295868 310.870636,383.395325 310.870605,390.993164 
z"/>
<path fill="#078BCF" opacity="1.000000" stroke="none" 
	d="
M236.996399,377.057831 
	C236.996567,374.260773 236.996567,371.954376 236.996567,369.268433 
	C243.978226,369.268433 250.672272,369.268433 257.768463,369.268433 
	C257.768463,381.533661 258.112732,393.774109 257.607910,405.979401 
	C257.390045,411.245972 251.776794,414.561432 246.230667,414.009033 
	C241.086761,413.496643 237.132431,409.380463 237.042938,403.967163 
	C236.897400,395.163086 236.998962,386.354950 236.996399,377.057831 
z"/>
<path fill="#0B8DD0" opacity="1.000000" stroke="none" 
	d="
M263.394348,359.585602 
	C269.918030,352.600586 278.246582,352.230469 283.524658,358.385773 
	C288.265167,363.914185 287.309662,372.425507 281.446777,376.895142 
	C277.096741,380.211365 270.501953,380.159058 266.176697,376.774048 
	C261.074310,372.780853 260.041351,366.958527 263.394348,359.585602 
z"/>
</svg>